Coordinates
version=1
nRows=30
nColumns=30
inDegrees=yes

Units are S.I. units (second, meters, Newtons, ...)
Angles are in degrees.

endheader
time	floatyaw	floatroll	floatpitch	floatx	floaty	floatz	pro_sup_l	deviation_l	flexion_l	cmc_flexion_l	cmc_abduction_l	mp_flexion_l	ip_flexion_l	2mcp_flexion_l	2mcp_abduction_l	2pm_flexion_l	2md_flexion_l	3mcp_flexion_l	3mcp_abduction_l	3pm_flexion_l	3md_flexion_l	4mcp_flexion_l	4mcp_abduction_l	4pm_flexion_l	4md_flexion_l	5mcp_flexion_l	5mcp_abduction_l	5pm_flexion_l	5md_flexion_l
-1.495000	-1.089067	-4.156866	93.821839	-0.009291	-0.265353	-0.002751	89.208994	0.373937	-2.082144	24.624182	2.998337	-18.014634	-29.192930	19.885094	5.869927	30.945383	20.638885	9.646276	4.416910	34.066771	21.779055	-1.193111	-3.922726	50.978671	32.939534	-21.114173	-7.850004	61.146878	49.869852
-1.485000	-1.089067	-4.156866	93.821839	-0.009304	-0.265344	-0.002744	89.192894	0.365127	-2.078861	24.566080	3.032951	-18.000590	-29.125286	19.918623	5.869926	30.905252	20.619220	9.682212	4.418069	34.025954	21.750415	-1.177725	-3.908936	50.954926	32.913230	-21.106891	-7.863339	61.087635	49.853169
-1.475000	-1.089067	-4.156866	93.821839	-0.009316	-0.265335	-0.002737	89.173208	0.355458	-2.075397	24.499632	3.075374	-17.984048	-29.049889	19.955534	5.869662	30.859009	20.603151	9.717541	4.417396	33.978305	21.730972	-1.172924	-3.899272	50.934940	32.902885	-21.100402	-7.875606	61.040928	49.819825
-1.465000	-1.089067	-4.156866	93.821839	-0.009326	-0.265327	-0.002727	89.158409	0.346348	-2.072157	24.433775	3.112845	-17.963048	-28.976517	19.988428	5.871613	30.812754	20.589971	9.748501	4.415913	33.929074	21.720547	-1.174720	-3.893051	50.915731	32.904234	-21.094833	-7.886307	61.008962	49.774095
-1.455000	-1.089067	-4.156866	93.821839	-0.009337	-0.265323	-0.002711	89.157476	0.339369	-2.071035	24.382400	3.132034	-17.939432	-28.919190	20.011901	5.877372	30.773783	20.577272	9.775198	4.415310	33.882334	21.714101	-1.173872	-3.889176	50.891280	32.909765	-21.084832	-7.895341	60.987318	49.725327
-1.445000	-1.089067	-4.156866	93.821839	-0.009349	-0.265322	-0.002691	89.174759	0.335579	-2.073497	24.356941	3.124686	-17.917443	-28.887204	20.022747	5.886519	30.748827	20.562688	9.798161	4.416600	33.842151	21.705314	-1.163695	-3.887266	50.858560	32.912373	-21.065276	-7.902446	60.969342	49.684563
-1.435000	-1.089067	-4.156866	93.821839	-0.009362	-0.265324	-0.002669	89.207543	0.335184	-2.079248	24.360634	3.091181	-17.901450	-28.879272	20.019804	5.896901	30.741967	20.545993	9.816037	4.419503	33.812713	21.690565	-1.144912	-3.888084	50.820915	32.908317	-21.036181	-7.906926	60.951936	49.659755
-1.425000	-1.089067	-4.156866	93.821839	-0.009374	-0.265330	-0.002648	89.246976	0.337520	-2.086431	24.387485	3.040887	-17.894259	-28.884612	20.004529	5.905889	30.752600	20.530069	9.826262	4.422847	33.796664	21.670927	-1.124433	-3.892938	50.786357	32.898098	-21.003741	-7.907643	60.938844	49.652296
-1.415000	-1.089067	-4.156866	93.821839	-0.009382	-0.265339	-0.002635	89.281194	0.341133	-2.093045	24.425725	2.989642	-17.896700	-28.890074	19.982221	5.911679	30.774286	20.519702	9.827849	4.425458	33.792821	21.651241	-1.109603	-3.902498	50.762116	32.885220	-20.977246	-7.903132	60.938674	49.657083
-1.405000	-1.089067	-4.156866	93.821839	-0.009385	-0.265351	-0.002631	89.299305	0.343975	-2.098425	24.463670	2.955037	-17.908400	-28.889089	19.962244	5.913912	30.795947	20.518745	9.823674	4.426773	33.795532	21.637148	-1.102327	-3.915805	50.749489	32.873872	-20.963989	-7.891925	60.958536	49.666087
-1.395000	-1.089067	-4.156866	93.821839	-0.009382	-0.265368	-0.002636	89.295482	0.344020	-2.103742	24.495346	2.950213	-17.928874	-28.887252	19.955399	5.913594	30.806265	20.527561	9.820159	4.426922	33.797011	21.631942	-1.097094	-3.930190	50.742714	32.866814	-20.965000	-7.873329	60.997755	49.673072
-1.385000	-1.089067	-4.156866	93.821839	-0.009376	-0.265391	-0.002645	89.272220	0.340360	-2.111223	24.523140	2.977775	-17.957745	-28.900630	19.968640	5.912626	30.799858	20.542486	9.824211	4.426475	33.791703	21.634893	-1.084056	-3.942251	50.732692	32.864459	-20.973768	-7.848541	61.046211	49.676518
-1.375000	-1.089067	-4.156866	93.821839	-0.009366	-0.265417	-0.002653	89.240872	0.334202	-2.122563	24.555550	3.026799	-17.993525	-28.946464	20.000073	5.913075	30.781515	20.557618	9.839217	4.426077	33.779980	21.641855	-1.055306	-3.949393	50.713123	32.865421	-20.978767	-7.821313	61.088456	49.679315
-1.365000	-1.089067	-4.156866	93.821839	-0.009353	-0.265438	-0.002657	89.217794	0.328875	-2.137429	24.600631	3.075934	-18.031932	-29.030989	20.038061	5.916152	30.764901	20.567819	9.862502	4.426094	33.768568	21.647786	-1.010667	-3.951080	50.685227	32.868002	-20.968964	-7.797250	61.110911	49.686046
-1.355000	-1.089067	-4.156866	93.821839	-0.009338	-0.265449	-0.002658	89.216800	0.328392	-2.152971	24.658868	3.102790	-18.065640	-29.142154	20.066170	5.921197	30.765344	20.571192	9.886035	4.426391	33.766937	21.649709	-0.959557	-3.949049	50.658196	32.871613	-20.939879	-7.781650	61.107950	49.699613
-1.345000	-1.089067	-4.156866	93.821839	-0.009322	-0.265444	-0.002656	89.241675	0.335123	-2.164818	24.720150	3.095437	-18.086485	-29.252652	20.071691	5.925427	30.790427	20.569748	9.900333	4.426434	33.781352	21.648292	-0.917550	-3.946381	50.644993	32.877185	-20.896933	-7.776906	61.083787	49.718735
-1.335000	-1.089067	-4.156866	93.821839	-0.009306	-0.265424	-0.002653	89.283424	0.347968	-2.169153	24.767071	3.059231	-18.089045	-29.331788	20.052657	5.924990	30.834226	20.568054	9.899495	4.425688	33.810054	21.647143	-0.899271	-3.945902	50.655590	32.886301	-20.853931	-7.781167	61.049505	49.737475
-1.325000	-1.089067	-4.156866	93.821839	-0.009293	-0.265396	-0.002648	89.324410	0.362320	-2.164680	24.782800	3.014212	-18.073300	-29.358925	20.018758	5.916964	30.879302	20.570832	9.884295	4.424069	33.842878	21.650431	-0.911466	-3.948785	50.691198	32.899593	-20.827358	-7.789362	61.017045	49.747487
-1.315000	-1.089067	-4.156866	93.821839	-0.009289	-0.265370	-0.002637	89.347173	0.372057	-2.153302	24.759161	2.984253	-18.044806	-29.331122	19.985533	5.901084	30.905663	20.580800	9.861475	4.422130	33.865982	21.660447	-0.949965	-3.954115	50.742607	32.915532	-20.829506	-7.796125	60.993498	49.742421
-1.305000	-1.089067	-4.156866	93.821839	-0.009295	-0.265354	-0.002616	89.342840	0.372466	-2.139201	24.700963	2.984573	-18.012565	-29.262426	19.965829	5.880083	30.901204	20.597639	9.839971	4.420857	33.868891	21.676489	-1.001856	-3.959580	50.793545	32.930652	-20.863571	-7.798643	60.978594	49.722202
-1.295000	-1.089067	-4.156866	93.821839	-0.009313	-0.265354	-0.002585	89.314587	0.362449	-2.127034	24.624909	3.014960	-17.986049	-29.177326	19.964090	5.858429	30.867269	20.618203	9.826688	4.421190	33.849510	21.695461	-1.051216	-3.962828	50.827286	32.941339	-20.922192	-7.797375	60.966319	49.694150
-1.285000	-1.089067	-4.156866	93.821839	-0.009339	-0.265369	-0.002546	89.274917	0.344898	-2.120299	24.553996	3.061799	-17.972760	-29.102739	19.976323	5.840239	30.816659	20.637763	9.824107	4.423507	33.814461	21.713648	-1.085294	-3.962654	50.833263	32.946154	-20.989502	-7.794278	60.949373	49.669552
-1.275000	-1.089067	-4.156866	93.821839	-0.009370	-0.265394	-0.002505	89.239022	0.325242	-2.120539	24.509825	3.106455	-17.976838	-29.061502	19.994293	5.827615	30.766556	20.651907	9.830313	4.427358	33.775303	21.728605	-1.098493	-3.959410	50.810782	32.947109	-21.046176	-7.790214	60.924065	49.657508
-1.265000	-1.089067	-4.156866	93.821839	-0.009398	-0.265424	-0.002469	89.217994	0.309060	-2.127442	24.505478	3.134644	-17.998340	-29.067910	20.010260	5.820318	30.731233	20.658455	9.840639	4.431638	33.743457	21.740159	-1.093103	-3.954564	50.768700	32.948955	-21.076328	-7.783837	60.893153	49.660020
-1.255000	-1.089067	-4.156866	93.821839	-0.009419	-0.265456	-0.002444	89.214851	0.299959	-2.139356	24.540892	3.142012	-18.032718	-29.124198	20.019632	5.816802	30.717975	20.658442	9.849620	4.435099	33.726704	21.750083	-1.077414	-3.949889	50.721900	32.956853	-21.073883	-7.772913	60.865142	49.671491
-1.245000	-1.089067	-4.156866	93.821839	-0.009429	-0.265489	-0.002431	89.224648	0.298690	-2.153767	24.602129	3.133875	-18.070757	-29.217888	20.021161	5.815682	30.726667	20.655340	9.852327	4.436868	33.728503	21.760699	-1.062472	-3.946797	50.686447	32.973707	-21.045200	-7.756978	60.850299	49.682769
-1.235000	-1.089067	-4.156866	93.821839	-0.009428	-0.265520	-0.002431	89.238265	0.303800	-2.167662	24.665701	3.120203	-18.100178	-29.322596	20.015749	5.816570	30.751857	20.652889	9.845115	4.436716	33.749284	21.773310	-1.058395	-3.946094	50.675074	32.998527	-21.005890	-7.739147	60.855835	49.686989
-1.225000	-1.089067	-4.156866	93.821839	-0.009415	-0.265546	-0.002447	89.247865	0.313276	-2.178077	24.707714	3.109283	-18.109690	-29.405506	20.004964	5.819870	30.786047	20.653152	9.826423	4.435016	33.787783	21.787452	-1.070804	-3.948052	50.693944	33.026650	-20.972902	-7.725485	60.883359	49.683503
-1.215000	-1.089067	-4.156866	93.821839	-0.009395	-0.265561	-0.002480	89.251052	0.326000	-2.182946	24.714411	3.103918	-18.094161	-29.440425	19.990015	5.826010	30.823190	20.656351	9.797874	4.432532	33.841057	21.801379	-1.098385	-3.952602	50.741207	33.051667	-20.956109	-7.722042	60.929836	49.677539
-1.205000	-1.089067	-4.156866	93.821839	-0.009367	-0.265560	-0.002530	89.251324	0.342004	-2.181848	24.688176	3.102111	-18.057753	-29.419463	19.971462	5.834845	30.861084	20.662354	9.764972	4.430182	33.903500	21.813254	-1.132942	-3.959438	50.807701	33.068059	-20.954182	-7.731293	60.990310	49.675989
